<svg xmlns="http://www.w3.org/2000/svg" viewBox="0 0 200 200">
  <defs>
    <linearGradient id="bg2" x1="0" y1="0" x2="1" y2="1">
      <stop offset="0%" stop-color="#ffe8f2"/>
      <stop offset="100%" stop-color="#ffc2d4"/>
    </linearGradient>
    <linearGradient id="fur2" x1="0" y1="0" x2="0" y2="1">
      <stop offset="0%" stop-color="#fff8fb"/>
      <stop offset="100%" stop-color="#ffd6e5"/>
    </linearGradient>
  </defs>
  <rect width="200" height="200" rx="28" fill="url(#bg2)"/>
  <circle cx="28" cy="36" r="4" fill="#ff6b8a"/>
  <circle cx="170" cy="40" r="3.5" fill="#e8a0f0"/>
  <path d="M58 72 L42 32 L82 58 Z" fill="url(#fur2)" stroke="#ff8fab" stroke-width="3" stroke-linejoin="round"/>
  <path d="M142 72 L158 32 L118 58 Z" fill="url(#fur2)" stroke="#ff8fab" stroke-width="3" stroke-linejoin="round"/>
  <path d="M58 68 L48 42 L72 60 Z" fill="#ff9eb5"/>
  <path d="M142 68 L152 42 L128 60 Z" fill="#ff9eb5"/>
  <ellipse cx="100" cy="102" rx="52" ry="46" fill="url(#fur2)" stroke="#ff8fab" stroke-width="3"/>
  <ellipse cx="72" cy="112" rx="10" ry="6" fill="#ff8fab" opacity="0.5"/>
  <ellipse cx="128" cy="112" rx="10" ry="6" fill="#ff8fab" opacity="0.5"/>
  <path d="M74 98 Q82 86 90 98" fill="none" stroke="#5a3342" stroke-width="3.5" stroke-linecap="round"/>
  <path d="M110 98 Q118 86 126 98" fill="none" stroke="#5a3342" stroke-width="3.5" stroke-linecap="round"/>
  <path d="M100 108 L96 113 L104 113 Z" fill="#e85a7a"/>
  <path d="M86 118 Q100 130 114 118" fill="none" stroke="#5a3342" stroke-width="2.8" stroke-linecap="round"/>
  <path d="M78 114 L52 108 M78 118 L52 120 M122 114 L148 108 M122 118 L148 120" stroke="#c97a90" stroke-width="2" stroke-linecap="round" opacity="0.7"/>
  <ellipse cx="100" cy="162" rx="38" ry="22" fill="url(#fur2)" stroke="#ff8fab" stroke-width="3"/>
  <path d="M28 70 C28 64 36 60 40 66 C44 60 52 64 52 70 C52 78 40 86 40 86 C40 86 28 78 28 70 Z" fill="#ff6b8a"/>
  <path d="M148 66 C148 60 156 56 160 62 C164 56 172 60 172 66 C172 74 160 82 160 82 C160 82 148 74 148 66 Z" fill="#ff8fab"/>
</svg>
